<svg width="376" height="376" viewBox="0 0 376 376" fill="none" xmlns="http://www.w3.org/2000/svg">
<g clip-path="url(#clip0_25_106)">
<path d="M375.162 187.581L187.581 0L-0.000249731 187.581L187.581 375.163L375.162 187.581Z" fill="white" fill-opacity="0.01"/>
<path d="M245.588 105.393L254.902 107.256C261.465 108.568 266.595 113.699 267.908 120.262L269.771 129.575C277.019 165.815 265.675 203.279 239.543 229.412L199.305 269.649L105.515 175.858L145.752 135.621C171.885 109.488 209.349 98.145 245.588 105.393Z" stroke="#00346A" stroke-width="22.1067" stroke-linecap="round" stroke-linejoin="round"/>
<path d="M179.765 195.398C192.715 208.347 213.711 208.347 226.661 195.398C239.61 182.448 239.61 161.452 226.661 148.502C213.711 135.553 192.715 135.553 179.765 148.502C166.815 161.452 166.815 182.448 179.765 195.398Z" fill="#00BFFF" stroke="#00346A" stroke-width="22.1067"/>
<path d="M148.502 132.871L100.757 133.721L82.0673 152.411L222.753 293.097L241.443 274.407L242.293 226.662" stroke="#00346A" stroke-width="22.1067" stroke-linecap="round" stroke-linejoin="round"/>
<path d="M132.87 242.293L109.422 265.741" stroke="#00346A" stroke-width="22.1067" stroke-linecap="round" stroke-linejoin="round"/>
<path d="M93.791 218.846L85.9751 226.662" stroke="#00346A" stroke-width="22.1067" stroke-linecap="round" stroke-linejoin="round"/>
<path d="M156.317 281.373L148.501 289.189" stroke="#00346A" stroke-width="22.1067" stroke-linecap="round" stroke-linejoin="round"/>
</g>
<defs>
<clipPath id="clip0_25_106">
<rect width="265.28" height="265.28" fill="white" transform="translate(187.581) rotate(45)"/>
</clipPath>
</defs>
</svg>
